<?xml version="1.0" encoding="utf-8"?>
<!-- Generator: Adobe Illustrator 26.1.0, SVG Export Plug-In . SVG Version: 6.00 Build 0)  -->
<svg version="1.1" id="Слой_1" xmlns="http://www.w3.org/2000/svg" xmlns:xlink="http://www.w3.org/1999/xlink" x="0px" y="0px"
	 viewBox="0 0 95 28" style="enable-background:new 0 0 95 28;" xml:space="preserve">
<style type="text/css">
	.st0{fill:#FFFFFF;}
	.st1{fill:#DB0034;}
	.st2{opacity:0.12;clip-path:url(#SVGID_00000180326709804256087680000018164746900241845933_);}
</style>
<g>
	<g>
		<path class="st0" d="M5.1,21.6L2.8,4.2h4.1l0.8,8.3C8,14.3,8.1,16,8.2,17.8h0.1c0.7-1.7,1.6-3.6,2.5-5.3L15,4.2h4.5L9.8,21.6H5.1z
			"/>
		<path class="st0" d="M17.3,21.6L19.9,9h4l-2.6,12.6H17.3z M20.5,5.6c0-1.2,1.1-2.1,2.3-2.1c1.2,0,2,0.7,2,1.8
			c0,1.3-1.1,2.1-2.4,2.1C21.3,7.4,20.5,6.7,20.5,5.6z"/>
		<path class="st0" d="M25.2,18.2c0.8,0.4,2.2,0.9,3.6,0.9c1.1,0,1.7-0.5,1.7-1.1c0-0.6-0.4-1-1.7-1.6c-1.6-0.7-2.9-1.8-2.9-3.3
			c0-2.6,2.5-4.3,6-4.3c1.6,0,2.8,0.3,3.5,0.6l-1,2.6c-0.6-0.2-1.5-0.5-2.7-0.5c-1.1,0-1.8,0.4-1.8,1.1c0,0.5,0.6,1,1.7,1.4
			c1.5,0.7,3,1.7,3,3.4c0,2.9-2.6,4.4-6.3,4.4c-1.7,0-3.4-0.4-4.2-1L25.2,18.2z"/>
		<path class="st0" d="M36.3,21.6L38.9,9h4l-2.6,12.6H36.3z M39.5,5.6c0-1.2,1.1-2.1,2.3-2.1c1.2,0,2,0.7,2,1.8
			c0,1.3-1.1,2.1-2.4,2.1C40.3,7.4,39.5,6.7,39.5,5.6z"/>
		<path class="st0" d="M51.4,5.4L50.7,9h2.9L53,11.8h-2.9l-0.9,4.3c-0.1,0.5-0.2,1.2-0.2,1.6c0,0.6,0.3,1.1,1.2,1.1
			c0.4,0,0.8,0,1.1-0.1l-0.5,2.9c-0.5,0.2-1.5,0.3-2.4,0.3c-2.4,0-3.5-1.1-3.5-2.7c0-0.7,0.1-1.4,0.3-2.3l1.1-5h-1.7L45,9h1.8
			l0.5-2.6L51.4,5.4z"/>
		<path class="st1" d="M64.7,20.8c-1.6,0.7-3.6,1-5.1,1c-3.9,0-5.9-2-5.9-5.3c0-3.8,3-7.8,7.9-7.8c2.8,0,4.7,1.4,4.7,3.8
			c0,3.2-3.4,4.4-8.8,4.2c0,0.4,0.2,0.9,0.4,1.3c0.5,0.6,1.4,1,2.6,1c1.5,0,2.7-0.3,3.8-0.8L64.7,20.8z M61.1,11.4
			c-1.9,0-2.9,1.4-3.2,2.6c3.1,0,4.7-0.4,4.7-1.5C62.6,11.8,62,11.4,61.1,11.4z"/>
		<path class="st1" d="M82,9l-1.7,8.5c-0.3,1.6-0.6,3-0.7,4.1H76l0.3-2l-0.1,0c-1.4,1.6-3.1,2.3-4.7,2.3c-2.2,0-3.5-1.1-3.5-3.5
			c0-0.7,0.1-1.5,0.3-2.3l1.4-7h4l-1.4,6.7c-0.1,0.6-0.2,1.2-0.2,1.7c0,0.8,0.4,1.5,1.4,1.5c1.4,0,2.8-1.5,3.3-4L78,9H82z"/>
		<path class="st1" d="M82.8,21.6l1.5-7.5c0.4-1.9,0.6-4,0.7-5.1h3.5c-0.1,0.9-0.1,1.7-0.2,2.6h0.1c1-1.7,2.5-2.9,4.3-2.9
			c0.3,0,0.5,0,0.7,0l-0.8,3.6c-0.2,0-0.4,0-0.6,0c-2.6,0-3.8,2.1-4.3,4.6l-1,4.7H82.8z"/>
	</g>
	<g>
		<defs>
			<rect id="SVGID_1_" y="21.9" width="95" height="5.7"/>
		</defs>
		<clipPath id="SVGID_00000183952954394219219960000005890368692723844507_">
			<use xlink:href="#SVGID_1_"  style="overflow:visible;"/>
		</clipPath>
		<g style="opacity:0.12;clip-path:url(#SVGID_00000183952954394219219960000005890368692723844507_);">
			<path class="st0" d="M9.8,22.6l9.7,9.4H15l-4.2-4.5c-0.9-1-1.8-2-2.5-2.9H8.2c-0.1,1-0.2,1.9-0.4,2.9L6.9,32H2.8l2.3-9.4H9.8z"/>
			<path class="st0" d="M21.4,22.6l2.6,6.8h-4l-2.6-6.8H21.4z M22.5,30.3c1.3,0,2.4,0.4,2.4,1.1c0,0.6-0.8,1-2,1
				c-1.2,0-2.3-0.5-2.3-1.1C20.5,30.7,21.3,30.3,22.5,30.3z"/>
			<path class="st0" d="M24.3,23c0.8-0.3,2.4-0.5,4.2-0.5c3.6,0,6.3,0.8,6.3,2.4c0,0.9-1.6,1.5-3,1.9C30.5,27,30,27.2,30,27.5
				c0,0.4,0.7,0.6,1.8,0.6c1.2,0,2.2-0.2,2.7-0.3l1,1.4c-0.7,0.2-1.9,0.4-3.5,0.4c-3.5,0-6-0.9-6-2.4c0-0.8,1.3-1.4,2.9-1.8
				c1.3-0.3,1.7-0.5,1.7-0.9c0-0.3-0.6-0.6-1.7-0.6c-1.3,0-2.8,0.3-3.6,0.5L24.3,23z"/>
			<path class="st0" d="M40.3,22.6l2.6,6.8h-4l-2.6-6.8H40.3z M41.4,30.3c1.3,0,2.4,0.4,2.4,1.1c0,0.6-0.8,1-2,1
				c-1.2,0-2.3-0.5-2.3-1.1C39.5,30.7,40.3,30.3,41.4,30.3z"/>
			<path class="st0" d="M47.3,30.9l-0.5-1.4H45l-0.6-1.5h1.7l-1.1-2.7c-0.2-0.5-0.3-0.9-0.3-1.3c0-0.9,1.1-1.5,3.5-1.5
				c0.9,0,1.8,0.1,2.4,0.2l0.5,1.6c-0.3,0-0.7,0-1.1,0c-0.9,0-1.2,0.2-1.2,0.6c0,0.2,0.1,0.6,0.2,0.9l0.9,2.3H53l0.6,1.5h-2.9
				l0.7,1.9L47.3,30.9z"/>
			<path class="st1" d="M64.4,24.4C63.3,24.2,62,24,60.6,24c-1.2,0-2.1,0.2-2.6,0.5c-0.3,0.2-0.4,0.5-0.4,0.7
				c5.5-0.1,8.8,0.6,8.8,2.3c0,1.3-2,2.1-4.7,2.1c-4.9,0-7.9-2.2-7.9-4.3c0-1.8,2-2.9,5.9-2.9c1.5,0,3.5,0.1,5.1,0.5L64.4,24.4z
				 M62.6,27.5c0-0.6-1.6-0.8-4.7-0.8c0.3,0.6,1.3,1.4,3.2,1.4C62,28.1,62.6,27.9,62.6,27.5z"/>
			<path class="st1" d="M78,29.4l-1.2-3.2c-0.5-1.4-1.9-2.2-3.3-2.2c-1,0-1.4,0.4-1.4,0.8c0,0.3,0.1,0.6,0.2,0.9l1.4,3.7h-4
				l-1.4-3.8c-0.2-0.5-0.3-0.9-0.3-1.3c0-1.3,1.3-1.9,3.5-1.9c1.6,0,3.3,0.4,4.7,1.3l0.1,0L76,22.6h3.5c0.2,0.6,0.4,1.4,0.7,2.2
				l1.7,4.6H78z"/>
			<path class="st1" d="M86.8,22.6l1,2.5c0.5,1.3,1.7,2.5,4.3,2.5c0.2,0,0.5,0,0.6,0l0.8,2c-0.2,0-0.5,0-0.7,0
				c-1.9,0-3.4-0.6-4.3-1.6h-0.1c0.1,0.5,0.2,0.9,0.2,1.4H85c-0.1-0.6-0.3-1.7-0.7-2.8l-1.5-4.1H86.8z"/>
		</g>
	</g>
</g>
</svg>
